<svg width="81" height="21" viewBox="0 0 81 21" fill="none" xmlns="http://www.w3.org/2000/svg">
<path d="M7.616 7.136L7.16 6.536L11.384 0.704H12.272L7.616 7.136ZM8.624 8.432L8.168 7.832L13.352 0.704H14.24L8.624 8.432ZM9.632 9.728L9.176 9.128L15.32 0.704H16.208L9.632 9.728ZM3.368 20V0.704H4.088V20H3.368ZM0.2 20V0.704H0.92V20H0.2ZM1.784 20V0.704H2.504V20H1.784ZM15.536 20L6.176 7.88L6.632 7.28L16.448 20H15.536ZM13.544 20L5.216 9.224L5.672 8.6L14.456 20H13.544ZM11.528 20L4.256 10.568L4.688 9.968L12.44 20H11.528ZM26.9774 10.904L20.3294 0.704H21.1934L27.8654 10.904H26.9774ZM23.1854 10.904L16.5374 0.704H17.4014L24.0494 10.904H23.1854ZM25.1054 10.904L18.4334 0.704H19.2974L25.9454 10.904H25.1054ZM26.4494 7.136L25.9934 6.464L29.8334 0.704H30.6974L26.4494 7.136ZM27.4094 8.624L26.9774 7.928L31.7294 0.704H32.5934L27.4094 8.624ZM28.3694 10.088L27.9134 9.416L33.6254 0.704H34.4894L28.3694 10.088ZM26.7374 20V11.792H27.4574V20H26.7374ZM23.5694 20V11.792H24.2894V20H23.5694ZM25.1534 20V11.792H25.8734V20H25.1534ZM44.0171 17.192C42.5931 17.192 41.3691 16.888 40.3451 16.28C39.3211 15.656 38.5371 14.824 37.9931 13.784C37.4491 12.744 37.1771 11.6 37.1771 10.352C37.1771 9.088 37.4491 7.944 37.9931 6.92C38.5371 5.88 39.3211 5.056 40.3451 4.448C41.3691 3.824 42.5931 3.512 44.0171 3.512C45.0571 3.512 45.9931 3.688 46.8251 4.04C47.6571 4.376 48.3611 4.848 48.9371 5.456L48.4331 5.96C47.9051 5.432 47.2731 5.016 46.5371 4.712C45.8011 4.408 44.9611 4.256 44.0171 4.256C42.7371 4.256 41.6331 4.536 40.7051 5.096C39.7931 5.64 39.0971 6.376 38.6171 7.304C38.1371 8.216 37.8971 9.232 37.8971 10.352C37.8971 11.472 38.1371 12.496 38.6171 13.424C39.0971 14.336 39.7931 15.072 40.7051 15.632C41.6331 16.176 42.7371 16.448 44.0171 16.448C44.9611 16.448 45.8011 16.296 46.5371 15.992C47.2731 15.688 47.9051 15.272 48.4331 14.744L48.9371 15.248C48.3611 15.84 47.6571 16.312 46.8251 16.664C45.9931 17.016 45.0571 17.192 44.0171 17.192ZM44.0171 18.776C42.7371 18.776 41.5771 18.56 40.5371 18.128C39.5131 17.68 38.6251 17.072 37.8731 16.304C37.1371 15.536 36.5691 14.648 36.1691 13.64C35.7851 12.616 35.5931 11.52 35.5931 10.352C35.5931 9.184 35.7851 8.096 36.1691 7.088C36.5691 6.064 37.1371 5.168 37.8731 4.4C38.6251 3.616 39.5131 3.008 40.5371 2.576C41.5771 2.144 42.7371 1.928 44.0171 1.928C45.2811 1.928 46.4171 2.144 47.4251 2.576C48.4491 2.992 49.3291 3.576 50.0651 4.328L49.5371 4.856C48.8811 4.168 48.0811 3.632 47.1371 3.248C46.2091 2.864 45.1691 2.672 44.0171 2.672C42.4491 2.672 41.0811 3.016 39.9131 3.704C38.7611 4.392 37.8731 5.32 37.2491 6.488C36.6251 7.64 36.3131 8.928 36.3131 10.352C36.3131 11.76 36.6251 13.048 37.2491 14.216C37.8731 15.384 38.7611 16.312 39.9131 17C41.0811 17.688 42.4491 18.032 44.0171 18.032C45.1691 18.032 46.2091 17.84 47.1371 17.456C48.0811 17.072 48.8811 16.536 49.5371 15.848L50.0651 16.376C49.3291 17.112 48.4491 17.696 47.4251 18.128C46.4171 18.56 45.2811 18.776 44.0171 18.776ZM44.0171 20.36C42.5131 20.36 41.1451 20.104 39.9131 19.592C38.6971 19.064 37.6491 18.344 36.7691 17.432C35.8891 16.52 35.2091 15.464 34.7291 14.264C34.2491 13.048 34.0091 11.744 34.0091 10.352C34.0091 8.96 34.2491 7.664 34.7291 6.464C35.2091 5.248 35.8891 4.184 36.7691 3.272C37.6491 2.36 38.6971 1.648 39.9131 1.136C41.1451 0.607999 42.5131 0.343998 44.0171 0.343998C45.4891 0.343998 46.8331 0.599998 48.0491 1.112C49.2651 1.608 50.3131 2.304 51.1931 3.2L50.6891 3.704C49.8731 2.888 48.8971 2.248 47.7611 1.784C46.6411 1.304 45.3931 1.064 44.0171 1.064C42.6091 1.064 41.3371 1.304 40.2011 1.784C39.0651 2.264 38.0891 2.928 37.2731 3.776C36.4571 4.624 35.8251 5.616 35.3771 6.752C34.9451 7.872 34.7291 9.072 34.7291 10.352C34.7291 11.632 34.9451 12.84 35.3771 13.976C35.8251 15.096 36.4571 16.08 37.2731 16.928C38.0891 17.776 39.0651 18.44 40.2011 18.92C41.3371 19.4 42.6091 19.64 44.0171 19.64C45.3931 19.64 46.6411 19.408 47.7611 18.944C48.8971 18.464 49.8731 17.816 50.6891 17L51.1931 17.504C50.3131 18.384 49.2651 19.08 48.0491 19.592C46.8331 20.104 45.4891 20.36 44.0171 20.36ZM59.3684 13.112C59.3684 12.232 59.6644 11.496 60.2564 10.904C60.8484 10.312 61.6084 10.016 62.5364 10.016C63.5124 10.016 64.2804 10.312 64.8404 10.904C65.4164 11.48 65.7044 12.168 65.7044 12.968C65.7044 13.368 65.6244 13.776 65.4644 14.192L64.8644 13.688C64.8964 13.592 64.9284 13.48 64.9604 13.352C64.9924 13.224 65.0084 13.096 65.0084 12.968C65.0084 12.36 64.7924 11.84 64.3604 11.408C63.9284 10.96 63.3204 10.736 62.5364 10.736C61.8004 10.736 61.2084 10.96 60.7604 11.408C60.3124 11.84 60.0884 12.36 60.0884 12.968L59.3684 13.112ZM61.1924 13.112C61.1924 12.76 61.3124 12.464 61.5524 12.224C61.8084 11.968 62.1364 11.84 62.5364 11.84C62.9524 11.84 63.2804 11.96 63.5204 12.2C63.7764 12.44 63.9044 12.72 63.9044 13.04C63.9044 13.12 63.8964 13.192 63.8804 13.256C63.8804 13.32 63.8724 13.384 63.8564 13.448L63.1604 13.28C63.1924 13.216 63.2084 13.136 63.2084 13.04C63.2084 12.768 62.9924 12.632 62.5604 12.632C62.3524 12.632 62.1924 12.68 62.0804 12.776C61.9844 12.872 61.9364 12.984 61.9364 13.112H61.1924ZM62.5364 20.36C61.6084 20.36 60.8484 20.064 60.2564 19.472C59.6644 18.88 59.3684 18.144 59.3684 17.264H60.0884C60.0884 17.904 60.3204 18.464 60.7844 18.944C61.2484 19.424 61.8324 19.664 62.5364 19.664C63.2724 19.664 63.8644 19.424 64.3124 18.944C64.7764 18.464 65.0084 17.904 65.0084 17.264C65.0084 16.576 64.7844 16.008 64.3364 15.56C63.9044 15.096 63.3044 14.864 62.5364 14.864V14.144C63.6244 14.144 64.4244 14.44 64.9364 15.032C65.4484 15.624 65.7044 16.368 65.7044 17.264C65.7044 18.144 65.4164 18.88 64.8404 19.472C64.2804 20.064 63.5124 20.36 62.5364 20.36ZM62.5364 18.56C62.1364 18.56 61.8084 18.44 61.5524 18.2C61.2964 17.944 61.1684 17.632 61.1684 17.264H61.8884C61.8884 17.408 61.9444 17.544 62.0564 17.672C62.1684 17.784 62.3284 17.84 62.5364 17.84C62.9364 17.84 63.1524 17.648 63.1844 17.264C63.1844 16.88 62.9684 16.688 62.5364 16.688V15.968C62.9524 15.968 63.2804 16.096 63.5204 16.352C63.7764 16.592 63.9044 16.896 63.9044 17.264C63.9044 17.632 63.7764 17.944 63.5204 18.2C63.2804 18.44 62.9524 18.56 62.5364 18.56ZM67.1497 17.432V12.872C67.1497 12.072 67.4137 11.392 67.9417 10.832C68.4697 10.272 69.1897 9.992 70.1017 9.992C71.0297 9.992 71.7497 10.28 72.2617 10.856C72.7897 11.416 73.0537 12.096 73.0537 12.896H72.3337C72.3337 12.288 72.1417 11.776 71.7577 11.36C71.3897 10.928 70.8377 10.712 70.1017 10.712C69.3657 10.712 68.8057 10.928 68.4217 11.36C68.0537 11.776 67.8697 12.288 67.8697 12.896V17.432C67.8697 18.024 68.0537 18.536 68.4217 18.968C68.8057 19.4 69.3657 19.616 70.1017 19.616C70.8377 19.616 71.3897 19.4 71.7577 18.968C72.1417 18.536 72.3337 18.024 72.3337 17.432C72.3337 16.84 72.1497 16.336 71.7817 15.92C71.4137 15.488 70.8777 15.264 70.1737 15.248V14.528C71.0697 14.544 71.7737 14.832 72.2857 15.392C72.7977 15.952 73.0537 16.632 73.0537 17.432C73.0537 18.232 72.7897 18.92 72.2617 19.496C71.7497 20.056 71.0297 20.336 70.1017 20.336C69.1737 20.336 68.4457 20.056 67.9177 19.496C67.4057 18.92 67.1497 18.232 67.1497 17.432ZM68.7337 17.432V12.872C68.7497 12.488 68.8777 12.176 69.1177 11.936C69.3737 11.696 69.7017 11.576 70.1017 11.576C70.5177 11.576 70.8457 11.696 71.0857 11.936C71.3417 12.176 71.4697 12.496 71.4697 12.896H70.7497C70.7497 12.72 70.6937 12.576 70.5817 12.464C70.4857 12.352 70.3257 12.296 70.1017 12.296C69.8777 12.296 69.7097 12.352 69.5977 12.464C69.5017 12.576 69.4537 12.72 69.4537 12.896V17.432C69.4537 17.592 69.5017 17.736 69.5977 17.864C69.7097 17.976 69.8777 18.032 70.1017 18.032C70.3257 18.032 70.4857 17.976 70.5817 17.864C70.6937 17.736 70.7497 17.592 70.7497 17.432C70.7497 17.272 70.7017 17.136 70.6057 17.024C70.5257 16.912 70.3817 16.848 70.1737 16.832V16.112C70.5577 16.128 70.8697 16.256 71.1097 16.496C71.3497 16.736 71.4697 17.048 71.4697 17.432C71.4697 17.832 71.3417 18.152 71.0857 18.392C70.8457 18.632 70.5177 18.752 70.1017 18.752C69.7017 18.752 69.3737 18.632 69.1177 18.392C68.8617 18.152 68.7337 17.832 68.7337 17.432ZM79.6696 17.456V12.896C79.6696 12.288 79.4776 11.776 79.0936 11.36C78.7256 10.928 78.1736 10.712 77.4376 10.712C76.7016 10.712 76.1416 10.928 75.7576 11.36C75.3896 11.776 75.2056 12.288 75.2056 12.896V17.456C75.2056 18.048 75.3896 18.56 75.7576 18.992C76.1416 19.424 76.7016 19.64 77.4376 19.64C78.1736 19.64 78.7256 19.424 79.0936 18.992C79.4776 18.56 79.6696 18.048 79.6696 17.456ZM78.0856 17.456V12.896C78.0856 12.72 78.0296 12.576 77.9176 12.464C77.8216 12.352 77.6616 12.296 77.4376 12.296C77.2136 12.296 77.0456 12.352 76.9336 12.464C76.8376 12.576 76.7896 12.72 76.7896 12.896V17.456C76.7896 17.616 76.8376 17.76 76.9336 17.888C77.0456 18 77.2136 18.056 77.4376 18.056C77.6616 18.056 77.8216 18 77.9176 17.888C78.0296 17.76 78.0856 17.616 78.0856 17.456ZM74.4856 17.456V12.896C74.4856 12.096 74.7416 11.416 75.2536 10.856C75.7816 10.28 76.5096 9.992 77.4376 9.992C78.3656 9.992 79.0856 10.28 79.5976 10.856C80.1256 11.416 80.3896 12.096 80.3896 12.896V17.456C80.3896 18.256 80.1256 18.944 79.5976 19.52C79.0856 20.08 78.3656 20.36 77.4376 20.36C76.5096 20.36 75.7816 20.08 75.2536 19.52C74.7416 18.944 74.4856 18.256 74.4856 17.456ZM76.0696 17.456V12.896C76.0696 12.496 76.1976 12.176 76.4536 11.936C76.7096 11.696 77.0376 11.576 77.4376 11.576C77.8536 11.576 78.1816 11.696 78.4216 11.936C78.6776 12.176 78.8056 12.496 78.8056 12.896V17.456C78.8056 17.856 78.6776 18.176 78.4216 18.416C78.1816 18.656 77.8536 18.776 77.4376 18.776C77.0376 18.776 76.7096 18.656 76.4536 18.416C76.1976 18.176 76.0696 17.856 76.0696 17.456Z" fill="white"/>
</svg>
